<svg version="1.1" viewBox="0.0 0.0 96.0 96.0" fill="none" stroke="none" stroke-linecap="square" stroke-miterlimit="10" xmlns:xlink="http://www.w3.org/1999/xlink" xmlns="http://www.w3.org/2000/svg"><clipPath id="p.0"><path d="m0 0l96.0 0l0 96.0l-96.0 0l0 -96.0z" clip-rule="nonzero"/></clipPath><g clip-path="url(#p.0)"><path fill="#000000" fill-opacity="0.0" d="m0 0l96.0 0l0 96.0l-96.0 0z" fill-rule="evenodd"/><defs><linearGradient id="p.1" gradientUnits="userSpaceOnUse" gradientTransform="matrix(9.798281983333684 0.0 0.0 9.798281983333684 0.0 0.0)" spreadMethod="pad" x1="0.0011127882975634946" y1="4.0035593853572784E-4" x2="0.0010773185130565103" y2="9.79868233920802"><stop offset="0.0" stop-color="#3177ee"/><stop offset="1.0" stop-color="#113d8a"/></linearGradient></defs><path fill="url(#p.1)" d="m0.0109034125 16.005589l0 0c0 -8.837284 7.164034 -16.001318 16.001316 -16.001318l64.00335 0l0 0c4.2438126 0 8.313812 1.6858482 11.314636 4.686677c3.0008316 3.0008292 4.686676 7.0708265 4.686676 11.314641l0 64.00334c0 8.837288 -7.164032 16.00132 -16.001312 16.00132l-64.00335 0c-8.837283 0 -16.001316 -7.164032 -16.001316 -16.00132z" fill-rule="evenodd"/><g filter="url(#shadowFilter-p.2)"><use xlink:href="#p.2" transform=""/></g><defs><filter id="shadowFilter-p.2" filterUnits="userSpaceOnUse"><feGaussianBlur in="SourceAlpha" stdDeviation="10.0" result="blur"/><feComponentTransfer in="blur" color-interpolation-filters="sRGB"><feFuncR type="linear" slope="0" intercept="0.0"/><feFuncG type="linear" slope="0" intercept="0.0"/><feFuncB type="linear" slope="0" intercept="1.0"/><feFuncA type="linear" slope="1.0" intercept="0"/></feComponentTransfer></filter></defs><g id="p.2"><defs><linearGradient id="p.3" gradientUnits="userSpaceOnUse" gradientTransform="matrix(8.260344083480957 0.0 0.0 8.260344083480957 0.0 0.0)" spreadMethod="pad" x1="0.9540174098920036" y1="2.0648197476403958" x2="0.9539874662761312" y2="10.325163831067078"><stop offset="0.0" stop-color="#4d4d4d"/><stop offset="1.0" stop-color="#000000"/></linearGradient></defs><path fill="url(#p.3)" d="m22.426435 85.289406l2.356638 -16.777916l0 0c-16.856934 -8.451992 -21.863724 -24.565231 -11.566917 -37.22557c10.296806 -12.660337 32.527386 -17.724443 51.35813 -11.699335c18.830742 6.0251083 28.098946 21.167603 21.411835 34.982903c-6.687111 13.8153 -27.141056 21.78209 -47.253666 18.405258z" fill-rule="evenodd"/></g><defs><radialGradient id="p.4" gradientUnits="userSpaceOnUse" gradientTransform="matrix(4.773134291229014 0.0 0.0 4.773134291229014 0.0 0.0)" spreadMethod="pad" cx="10.059364654114026" cy="9.512015900840177" fx="10.059364654114026" fy="9.512015900840177" r="4.773134231567383"><stop offset="0.0" stop-color="#ffffff"/><stop offset="1.0" stop-color="#b3b3b3"/></radialGradient></defs><path fill="url(#p.4)" d="m31.292446 34.257744l0 3.2478065c0 0.5871773 -0.108263016 1.0000343 -0.32478905 1.2385712c-0.2128582 0.23487091 -0.6128826 0.35230637 -1.2000732 0.35230637l-1.623949 0l0 2.3670464l2.8735657 0l0 12.209557c0 0.855072 0.24221611 1.5486717 0.72664833 2.080799c0.48810387 0.5284538 1.205576 0.79268265 2.152422 0.79268265l3.3800201 0l0 -2.3670464l-3.5506706 0l0 -12.715992l3.8204079 0l0 -2.3670464l-3.8204079 0l0 -4.838684z" fill-rule="evenodd"/><defs><radialGradient id="p.5" gradientUnits="userSpaceOnUse" gradientTransform="matrix(4.773134291229014 0.0 0.0 4.773134291229014 0.0 0.0)" spreadMethod="pad" cx="10.059364654114026" cy="9.512015900840177" fx="10.059364654114026" fy="9.512015900840177" r="4.773134231567383"><stop offset="0.0" stop-color="#ffffff"/><stop offset="1.0" stop-color="#b3b3b3"/></radialGradient></defs><path fill="url(#p.5)" d="m41.908913 39.096428l0 17.450085l2.708416 0l0 -11.835232c0 -0.8367233 0.41103363 -1.530323 1.2331009 -2.080799c0.82206726 -0.5541458 1.9670906 -0.8312187 3.43507 -0.8312187l1.5854149 0l0 -2.702835l-1.0459328 0c-1.420269 0 -2.5377693 0.32661438 -3.3524933 0.97984695c-0.81105804 0.6532326 -1.3743973 1.3963737 -1.6900101 2.2294273l-0.16514969 0l0 -3.2092743z" fill-rule="evenodd"/><defs><radialGradient id="p.6" gradientUnits="userSpaceOnUse" gradientTransform="matrix(4.773134291229014 0.0 0.0 4.773134291229014 0.0 0.0)" spreadMethod="pad" cx="10.059364654114026" cy="9.512015900840177" fx="10.059364654114026" fy="9.512015900840177" r="4.773134231567383"><stop offset="0.0" stop-color="#ffffff"/><stop offset="1.0" stop-color="#b3b3b3"/></radialGradient></defs><path fill="url(#p.6)" d="m52.42796 39.096428l6.1930313 8.658985l-6.4627724 8.7911l3.0111885 0l4.9048805 -6.8314056l0.099090576 0l4.5305405 6.8314056l3.1818466 0l-6.292122 -8.994774l6.1544952 -8.455311l-3.005684 0l-4.602108 6.4901123l-0.09908676 0l-4.4314575 -6.4901123z" fill-rule="evenodd"/></g></svg>
